<svg width="36" height="38" viewBox="0 0 36 38" fill="none" xmlns="http://www.w3.org/2000/svg">
<path d="M10.5 16.914C10.5 16.914 11.0793 22.3215 13.336 24.5781C15.5926 26.8347 21 27.414 21 27.414C21 27.414 15.5926 27.9934 13.336 30.25C11.0793 32.5066 10.5 37.914 10.5 37.914C10.5 37.914 9.92066 32.5066 7.66405 30.25C5.40743 27.9934 0 27.414 0 27.414C0 27.414 5.40743 26.8347 7.66405 24.5781C9.92066 22.3215 10.5 16.914 10.5 16.914Z" fill="white"/>
<path d="M25.5 8C25.5 8 26.0793 13.4074 28.336 15.664C30.5926 17.9207 36 18.5 36 18.5C36 18.5 30.5926 19.0793 28.336 21.336C26.0793 23.5926 25.5 29 25.5 29C25.5 29 24.9207 23.5926 22.664 21.336C20.4074 19.0793 15 18.5 15 18.5C15 18.5 20.4074 17.9207 22.664 15.664C24.9207 13.4074 25.5 8 25.5 8Z" fill="white"/>
<path d="M10.5 0.085968C10.5 0.085968 11.0793 5.4934 13.336 7.75002C15.5926 10.0066 21 10.586 21 10.586C21 10.586 15.5926 11.1653 13.336 13.4219C11.0793 15.6785 10.5 21.086 10.5 21.086C10.5 21.086 9.92066 15.6785 7.66405 13.4219C5.40743 11.1653 0 10.586 0 10.586C0 10.586 5.40743 10.0066 7.66405 7.75002C9.92066 5.4934 10.5 0.085968 10.5 0.085968Z" fill="white"/>
</svg>
