<svg width="93" height="98" viewBox="0 0 93 98" fill="none" xmlns="http://www.w3.org/2000/svg">
<path d="M27.125 43.4725C27.125 43.4725 28.6216 57.4417 34.4512 63.2713C40.2808 69.1009 54.25 70.5975 54.25 70.5975C54.25 70.5975 40.2808 72.0941 34.4512 77.9237C28.6216 83.7533 27.125 97.7225 27.125 97.7225C27.125 97.7225 25.6284 83.7533 19.7988 77.9237C13.9692 72.0941 0 70.5975 0 70.5975C0 70.5975 13.9692 69.1009 19.7988 63.2713C25.6284 57.4417 27.125 43.4725 27.125 43.4725Z" fill="white"/>
<path d="M65.875 20.4446C65.875 20.4446 67.3716 34.4138 73.2012 40.2434C79.0308 46.073 93 47.5696 93 47.5696C93 47.5696 79.0308 49.0662 73.2012 54.8958C67.3716 60.7254 65.875 74.6946 65.875 74.6946C65.875 74.6946 64.3784 60.7254 58.5488 54.8958C52.7192 49.0662 38.75 47.5696 38.75 47.5696C38.75 47.5696 52.7192 46.073 58.5488 40.2434C64.3784 34.4138 65.875 20.4446 65.875 20.4446Z" fill="white"/>
<path d="M27.125 0C27.125 0 28.6216 13.9692 34.4512 19.7988C40.2808 25.6284 54.25 27.125 54.25 27.125C54.25 27.125 40.2808 28.6216 34.4512 34.4512C28.6216 40.2808 27.125 54.25 27.125 54.25C27.125 54.25 25.6284 40.2808 19.7988 34.4512C13.9692 28.6216 0 27.125 0 27.125C0 27.125 13.9692 25.6284 19.7988 19.7988C25.6284 13.9692 27.125 0 27.125 0Z" fill="white"/>
</svg>
