<svg width="24" height="24" viewBox="0 0 24 24" fill="none" xmlns="http://www.w3.org/2000/svg">
<path d="M7.07812 12C7.07812 12.3854 6.92486 12.7548 6.65234 13.0273C6.37983 13.2999 6.01039 13.4531 5.625 13.4531C5.37353 13.4531 5.12697 13.3879 4.90918 13.2646L4.81738 13.208C4.6083 13.0682 4.43969 12.8769 4.32715 12.6533L4.28223 12.5557C4.18609 12.3233 4.15201 12.0706 4.18262 11.8223L4.2002 11.7168C4.25627 11.4349 4.39443 11.1759 4.59766 10.9727C4.77556 10.7948 4.996 10.6664 5.2373 10.5996L5.3418 10.5752C5.5883 10.5262 5.84255 10.5418 6.08008 10.6201L6.18066 10.6572C6.41302 10.7535 6.61647 10.9082 6.77051 11.1055L6.83301 11.1924C6.99268 11.4313 7.07812 11.7126 7.07812 12ZM13.4531 12C13.4531 12.3372 13.3359 12.6623 13.124 12.9209L13.0273 13.0273C12.7548 13.2999 12.3854 13.4531 12 13.4531C11.7126 13.4531 11.4313 13.3677 11.1924 13.208C10.9833 13.0682 10.8147 12.8769 10.7021 12.6533L10.6572 12.5557C10.5611 12.3233 10.527 12.0706 10.5576 11.8223L10.5752 11.7168C10.6313 11.4349 10.7694 11.1759 10.9727 10.9727C11.1506 10.7948 11.371 10.6664 11.6123 10.5996L11.7168 10.5752C11.9633 10.5262 12.2175 10.5418 12.4551 10.6201L12.5557 10.6572C12.788 10.7535 12.9915 10.9082 13.1455 11.1055L13.208 11.1924C13.3677 11.4313 13.4531 11.7126 13.4531 12ZM19.7178 11.4443C19.8139 11.6767 19.848 11.9294 19.8174 12.1777L19.7998 12.2832C19.7437 12.5651 19.6056 12.8241 19.4023 13.0273C19.1991 13.2306 18.9401 13.3687 18.6582 13.4248C18.4117 13.4738 18.1575 13.4582 17.9199 13.3799L17.8193 13.3428C17.587 13.2465 17.3835 13.0918 17.2295 12.8945L17.167 12.8076C17.0073 12.5687 16.9219 12.2874 16.9219 12C16.9219 11.6146 17.0751 11.2452 17.3477 10.9727C17.6202 10.7001 17.9896 10.5469 18.375 10.5469C18.6265 10.5469 18.873 10.6121 19.0908 10.7354L19.1826 10.792C19.3917 10.9318 19.5603 11.1231 19.6729 11.3467L19.7178 11.4443Z" fill="#160211" stroke="#160211" stroke-width="0.09375"/>
</svg>
