<svg width="36" height="36" viewBox="0 0 36 36" fill="none" xmlns="http://www.w3.org/2000/svg">
<g clip-path="url(#clip0_2030_95)">
<path d="M34.8522 17.4802L1.24284 0.629307C1.10623 0.561003 0.949538 0.544932 0.800877 0.581093C0.635885 0.621881 0.493778 0.726385 0.405672 0.871724C0.317565 1.01706 0.290638 1.19139 0.330787 1.35654L3.79418 15.5074C3.84641 15.7204 4.00311 15.8931 4.21204 15.9614L10.1464 17.9985L4.21606 20.0356C4.00713 20.1079 3.85043 20.2766 3.80222 20.4896L0.330787 34.6606C0.294627 34.8092 0.310698 34.9659 0.379002 35.0985C0.535698 35.4159 0.921413 35.5445 1.24284 35.3878L34.8522 18.6333C34.9768 18.5731 35.0772 18.4686 35.1415 18.3481C35.2982 18.0266 35.1696 17.6409 34.8522 17.4802ZM4.29239 30.6347L6.31338 22.3739L18.1741 18.3039C18.2665 18.2717 18.3428 18.1994 18.375 18.103C18.4312 17.9342 18.3428 17.7534 18.1741 17.6931L6.31338 13.6271L4.30043 5.3985L29.5326 18.0507L4.29239 30.6347Z" fill="#456288"/>
</g>
<defs>
<clipPath id="clip0_2030_95">
<rect width="36" height="36" fill="white"/>
</clipPath>
</defs>
</svg>
