<svg width="19" height="4" viewBox="0 0 19 4" fill="none" xmlns="http://www.w3.org/2000/svg">
<path d="M3.07422 2C3.07422 2.35218 2.96269 2.6842 2.77148 2.94238L2.68457 3.04883C2.44229 3.31644 2.1262 3.45506 1.80957 3.45508C1.63155 3.45508 1.4534 3.41164 1.28809 3.3252L1.12793 3.22461C0.919958 3.07102 0.750557 2.84659 0.648438 2.57422C0.54626 2.30157 0.518656 1.99851 0.571289 1.70605C0.610771 1.48691 0.693396 1.28518 0.808594 1.11328L0.93457 0.951172C1.07032 0.801244 1.23006 0.6914 1.40039 0.624023L1.57324 0.570312C1.74863 0.531753 1.92954 0.536848 2.10352 0.584961L2.27539 0.647461C2.44438 0.724846 2.59985 0.845182 2.72852 1.00195L2.84766 1.1709C2.99349 1.41215 3.07422 1.7008 3.07422 2ZM10.7646 2C10.7646 2.35219 10.6531 2.6842 10.4619 2.94238L10.375 3.04883C10.1327 3.31644 9.81664 3.45508 9.5 3.45508C9.32197 3.45508 9.14384 3.41165 8.97852 3.3252L8.81836 3.22461C8.66249 3.10949 8.52827 2.95454 8.42773 2.76953L8.33887 2.57422C8.26221 2.36966 8.22756 2.14812 8.2373 1.92676L8.26172 1.70605C8.3012 1.48692 8.38383 1.28518 8.49902 1.11328L8.625 0.951172C8.76074 0.801244 8.9205 0.691405 9.09082 0.624023L9.26367 0.570312C9.43905 0.531756 9.61998 0.536859 9.79395 0.584961L9.96582 0.647461C10.1348 0.724842 10.2903 0.845181 10.4189 1.00195L10.5381 1.1709C10.6839 1.41216 10.7646 1.70079 10.7646 2ZM18.4287 2.29395C18.3892 2.51309 18.3066 2.71482 18.1914 2.88672L18.0654 3.04883C17.9297 3.19876 17.7699 3.3086 17.5996 3.37598L17.4268 3.42969C17.2514 3.46825 17.0705 3.46315 16.8965 3.41504L16.7246 3.35254C16.5556 3.27515 16.4002 3.15482 16.2715 2.99805L16.1523 2.8291C16.0065 2.58785 15.9258 2.2992 15.9258 2C15.9258 1.64782 16.0373 1.3158 16.2285 1.05762L16.3154 0.951172C16.5577 0.683555 16.8738 0.544935 17.1904 0.544922C17.3684 0.544922 17.5466 0.588362 17.7119 0.674805L17.8721 0.775391C18.0279 0.890505 18.1622 1.04546 18.2627 1.23047L18.3516 1.42578C18.4282 1.63034 18.4629 1.85188 18.4531 2.07324L18.4287 2.29395Z" fill="white" stroke="white" stroke-width="1.09"/>
</svg>
